<?xml version="1.0" encoding="UTF-8"?>
<svg xmlns="http://www.w3.org/2000/svg" xmlns:xlink="http://www.w3.org/1999/xlink" width="1284.95" height="396.51"><defs/><rect width="100%" height="100%" fill="#FFFFFF"/><g transform="scale(1.33) translate(698,183)" style="fill:none;"><g transform="translate(-382,-156)"><path d="M121,105Q121,-21 262,33" stroke="#707070" stroke-width="1" stroke-linecap="round"/></g><g transform="translate(-382,-100)"><path d="M121,49Q121,154 262,109" stroke="#707070" stroke-width="1" stroke-linecap="round"/></g><g transform="translate(-120,-70)"><path d="M172,79Q172,47 202,47" stroke="#707070" stroke-width="1" stroke-linecap="round"/></g><g transform="translate(-493,-100)"><path d="M121,49L91,49" stroke="#707070" stroke-width="1" stroke-linecap="round"/></g><g transform="translate(-632,-113)"><path d="M185,62Q185,-11.5 119,20" stroke="#707070" stroke-width="1" stroke-linecap="round"/></g><g transform="translate(-120,-38)"><path d="M172,47Q172,103 202,103" stroke="#707070" stroke-width="1" stroke-linecap="round"/></g><g transform="translate(-671,-73)"><path d="M188,22Q188,52 158,52" stroke="#707070" stroke-width="1" stroke-linecap="round"/></g><g transform="translate(-382,-100)"><rect x="0" y="0" width="242" height="98" border="1" rx="10" ry="10" style="fill:#22AAE0;stroke:#707070;stroke-width:1px;"/><g transform="translate (6 6) scale(0.02783203125)" style="fill:#4F4F4F;"><g transform="translate(2282.9298245614036 2048) scale (1 -1)"><path d="M494 901L616 901Q902 901 1058 785Q1214 669 1214 457Q1214 0 610 0L184 0L184 1462L1108 1462L1108 1206L494 1206ZM494 254L598 254Q755 254 828 304.5Q901 355 901 457Q901 558 827 602.5Q753 647 573 647L494 647Z"/></g><g transform="translate(3589.9298245614036 2048) scale (1 -1)"><path d="M403 561Q403 395 457.5 310Q512 225 635 225Q757 225 810.5 309.5Q864 394 864 561Q864 727 810 810Q756 893 633 893Q511 893 457 810.5Q403 728 403 561ZM1176 561Q1176 288 1032 134Q888 -20 631 -20Q470 -20 347 50.5Q224 121 158 253Q92 385 92 561Q92 835 235 987Q378 1139 637 1139Q798 1139 921 1069Q1044 999 1110 868Q1176 737 1176 561Z"/></g><g transform="translate(4857.929824561404 2048) scale (1 -1)"><path d="M1085 1118L1085 889L719 889L719 0L414 0L414 889L47 889L47 1118Z"/></g></g></g><g transform="translate(-120,-156)"><rect x="0" y="0" width="158" height="66" border="1" rx="10" ry="10" style="fill:#E0E0E0;stroke:#707070;stroke-width:1px;"/><g transform="translate (6 6) scale(0.0087890625)" style="fill:#4F4F4F;"><g transform="translate(868.2777777777774 2048) scale (1 -1)"><path d="M494 901L616 901Q902 901 1058 785Q1214 669 1214 457Q1214 0 610 0L184 0L184 1462L1108 1462L1108 1206L494 1206ZM494 254L598 254Q755 254 828 304.5Q901 355 901 457Q901 558 827 602.5Q753 647 573 647L494 647Z"/></g><g transform="translate(2175.2777777777774 2048) scale (1 -1)"><path d="M870 0L811 152L803 152Q726 55 644.5 17.5Q563 -20 432 -20Q271 -20 178.5 72Q86 164 86 334Q86 512 210.5 596.5Q335 681 586 690L780 696L780 745Q780 915 606 915Q472 915 291 834L190 1040Q383 1141 618 1141Q843 1141 963 1043Q1083 945 1083 745L1083 0ZM780 518L662 514Q529 510 464 466Q399 422 399 332Q399 203 547 203Q653 203 716.5 264Q780 325 780 426Z"/></g><g transform="translate(3412.2777777777774 2048) scale (1 -1)"><path d="M438 688Q611 688 683.5 716Q756 744 756 805Q756 859 703 886Q650 913 528 913Q451 913 353.5 894Q256 875 176 842L86 1055Q205 1100 317 1119.5Q429 1139 567 1139Q776 1139 902 1059Q1028 979 1028 842Q1028 653 805 596L805 586Q942 552 1000.5 489.5Q1059 427 1059 326Q1059 224 993 145Q927 66 802 23Q677 -20 508 -20Q228 -20 78 49L78 301Q164 261 266.5 238Q369 215 465 215Q614 215 688 248.5Q762 282 762 344Q762 412 684 444.5Q606 477 444 477L326 477L326 688Z"/></g><g transform="translate(4549.277777777777 2048) scale (1 -1)"><path d="M870 0L811 152L803 152Q726 55 644.5 17.5Q563 -20 432 -20Q271 -20 178.5 72Q86 164 86 334Q86 512 210.5 596.5Q335 681 586 690L780 696L780 745Q780 915 606 915Q472 915 291 834L190 1040Q383 1141 618 1141Q843 1141 963 1043Q1083 945 1083 745L1083 0ZM780 518L662 514Q529 510 464 466Q399 422 399 332Q399 203 547 203Q653 203 716.5 264Q780 325 780 426Z"/></g><g transform="translate(6318.277777777777 2048) scale (1 -1)"><path d="M860 223L860 889L631 889Q606 703 562.5 536Q519 369 442 223ZM1329 -401L1055 -401L1055 0L303 0L303 -401L29 -401L29 223L123 223Q219 372 284 599Q349 826 375 1118L1165 1118L1165 223L1329 223Z"/></g><g transform="translate(7678.277777777777 2048) scale (1 -1)"><path d="M870 0L811 152L803 152Q726 55 644.5 17.5Q563 -20 432 -20Q271 -20 178.5 72Q86 164 86 334Q86 512 210.5 596.5Q335 681 586 690L780 696L780 745Q780 915 606 915Q472 915 291 834L190 1040Q383 1141 618 1141Q843 1141 963 1043Q1083 945 1083 745L1083 0ZM780 518L662 514Q529 510 464 466Q399 422 399 332Q399 203 547 203Q653 203 716.5 264Q780 325 780 426Z"/></g><g transform="translate(8915.277777777777 2048) scale (1 -1)"><path d="M465 1118L465 688L891 688L891 1118L1196 1118L1196 0L891 0L891 461L465 461L465 0L160 0L160 1118Z"/></g><g transform="translate(10271.277777777777 2048) scale (1 -1)"><path d="M465 1118L465 688L891 688L891 1118L1196 1118L1196 0L891 0L891 461L465 461L465 0L160 0L160 1118Z"/></g><g transform="translate(11627.277777777777 2048) scale (1 -1)"><path d="M465 686L612 686Q868 686 991 604Q1114 522 1114 356Q1114 179 991 89.5Q868 0 623 0L160 0L160 1118L465 1118ZM809 352Q809 417 757 446Q705 475 602 475L465 475L465 211L606 211Q809 211 809 352ZM1581 0L1276 0L1276 1118L1581 1118Z"/></g><g transform="translate(13368.277777777777 2048) scale (1 -1)"><path d="M389 571L29 1118L375 1118L592 762L811 1118L1157 1118L793 571L1174 0L827 0L592 383L356 0L10 0Z"/></g><g transform="translate(15084.277777777777 2048) scale (1 -1)"><path d="M61 424L61 674L598 674L598 424Z"/></g><g transform="translate(1971.2777777777774 5120) scale (1 -1)"><path d="M1047 406Q1047 208 904.5 94Q762 -20 508 -20Q274 -20 94 68L94 356Q242 290 344.5 263Q447 236 532 236Q634 236 688.5 275Q743 314 743 391Q743 434 719 467.5Q695 501 648.5 532Q602 563 459 631Q325 694 258 752Q191 810 151 887Q111 964 111 1067Q111 1261 242.5 1372Q374 1483 606 1483Q720 1483 823.5 1456Q927 1429 1040 1380L940 1139Q823 1187 746.5 1206Q670 1225 596 1225Q508 1225 461 1184Q414 1143 414 1077Q414 1036 433 1005.5Q452 975 493.5 946.5Q535 918 690 844Q895 746 971 647.5Q1047 549 1047 406Z"/></g><g transform="translate(3099.2777777777774 5120) scale (1 -1)"><path d="M1511 733Q1511 475 1419.5 300.5Q1328 126 1151 45L1503 -348L1106 -348L838 -20L815 -20Q479 -20 299 175Q119 370 119 735Q119 1100 299.5 1292.5Q480 1485 817 1485Q1154 1485 1332.5 1291Q1511 1097 1511 733ZM444 733Q444 488 537 364Q630 240 815 240Q1186 240 1186 733Q1186 1227 817 1227Q632 1227 538 1102.5Q444 978 444 733Z"/></g><g transform="translate(4729.277777777777 5120) scale (1 -1)"><path d="M184 0L184 1462L494 1462L494 256L1087 256L1087 0Z"/></g><g transform="translate(6418.277777777777 5120) scale (1 -1)"><path d="M82 561Q82 826 159.5 1057Q237 1288 383 1462L633 1462Q492 1269 420 1038Q348 807 348 563Q348 318 421.5 89.5Q495 -139 631 -324L383 -324Q236 -154 159 73Q82 300 82 561Z"/></g><g transform="translate(7112.277777777777 5120) scale (1 -1)"><path d="M940 332Q940 160 820.5 70Q701 -20 463 -20Q341 -20 255 -3.5Q169 13 94 45L94 297Q179 257 285.5 230Q392 203 473 203Q639 203 639 299Q639 335 617 357.5Q595 380 541 408.5Q487 437 397 475Q268 529 207.5 575Q147 621 119.5 680.5Q92 740 92 827Q92 976 207.5 1057.5Q323 1139 535 1139Q737 1139 928 1051L836 831Q752 867 679 890Q606 913 530 913Q395 913 395 840Q395 799 438.5 769Q482 739 629 680Q760 627 821 581Q882 535 911 475Q940 415 940 332Z"/></g><g transform="translate(8130.277777777777 5120) scale (1 -1)"><path d="M623 219Q739 219 793 285.5Q847 352 852 518L852 555Q852 735 796.5 813Q741 891 618 891Q403 891 403 553Q403 385 456.5 302Q510 219 623 219ZM514 -20Q316 -20 204 132.5Q92 285 92 557Q92 831 206.5 985Q321 1139 520 1139Q626 1139 705 1099Q784 1059 844 975L852 975L879 1118L1137 1118L1137 -492L831 -492L831 -23Q831 38 844 145L831 145Q782 64 701 22Q620 -20 514 -20Z"/></g><g transform="translate(9426.277777777777 5120) scale (1 -1)"><path d="M465 0L160 0L160 1556L465 1556Z"/></g><g transform="translate(10051.277777777777 5120) scale (1 -1)"><path d="M147 1407Q147 1556 313 1556Q479 1556 479 1407Q479 1336 437.5 1296.5Q396 1257 313 1257Q147 1257 147 1407ZM465 0L160 0L160 1118L465 1118Z"/></g><g transform="translate(10676.277777777777 5120) scale (1 -1)"><path d="M631 223Q711 223 823 258L823 31Q709 -20 543 -20Q360 -20 276.5 72.5Q193 165 193 350L193 889L47 889L47 1018L215 1120L303 1356L498 1356L498 1118L811 1118L811 889L498 889L498 350Q498 285 534.5 254Q571 223 631 223Z"/></g><g transform="translate(11565.277777777777 5120) scale (1 -1)"><path d="M623 922Q526 922 471 860.5Q416 799 408 686L836 686Q834 799 777 860.5Q720 922 623 922ZM666 -20Q396 -20 244 129Q92 278 92 551Q92 832 232.5 985.5Q373 1139 621 1139Q858 1139 990 1004Q1122 869 1122 631L1122 483L401 483Q406 353 478 280Q550 207 680 207Q781 207 871 228Q961 249 1059 295L1059 59Q979 19 888 -0.5Q797 -20 666 -20Z"/></g><g transform="translate(12775.277777777777 5120) scale (1 -1)"><path d="M1047 1135Q1047 998 964 902Q881 806 731 770L731 764Q908 742 999 656.5Q1090 571 1090 426Q1090 215 937 97.5Q784 -20 500 -20Q262 -20 78 59L78 322Q163 279 265 252Q367 225 467 225Q620 225 693 277Q766 329 766 444Q766 547 682 590Q598 633 414 633L303 633L303 870L416 870Q586 870 664.5 914.5Q743 959 743 1067Q743 1233 535 1233Q463 1233 388.5 1209Q314 1185 223 1126L80 1339Q280 1483 557 1483Q784 1483 915.5 1391Q1047 1299 1047 1135Z"/></g><g transform="translate(13946.277777777777 5120) scale (1 -1)"><path d="M612 561Q612 298 534.5 71Q457 -156 311 -324L63 -324Q198 -140 272 88.5Q346 317 346 563Q346 807 274 1038Q202 1269 61 1462L311 1462Q458 1287 535 1055.5Q612 824 612 561Z"/></g></g></g><g transform="translate(-120,-38)"><rect x="0" y="0" width="182" height="93" border="1" rx="10" ry="10" style="fill:#E0E0E0;stroke:#707070;stroke-width:1px;"/><g transform="translate (6 6) scale(0.0087890625)" style="fill:#4F4F4F;"><g transform="translate(5437.111111111111 2048) scale (1 -1)"><path d="M805 1225Q630 1225 534 1093.5Q438 962 438 727Q438 238 805 238Q959 238 1178 315L1178 55Q998 -20 776 -20Q457 -20 288 173.5Q119 367 119 729Q119 957 202 1128.5Q285 1300 440.5 1391.5Q596 1483 805 1483Q1018 1483 1233 1380L1133 1128Q1051 1167 968 1196Q885 1225 805 1225Z"/></g><g transform="translate(6742.111111111111 2048) scale (1 -1)"><path d="M870 0L811 152L803 152Q726 55 644.5 17.5Q563 -20 432 -20Q271 -20 178.5 72Q86 164 86 334Q86 512 210.5 596.5Q335 681 586 690L780 696L780 745Q780 915 606 915Q472 915 291 834L190 1040Q383 1141 618 1141Q843 1141 963 1043Q1083 945 1083 745L1083 0ZM780 518L662 514Q529 510 464 466Q399 422 399 332Q399 203 547 203Q653 203 716.5 264Q780 325 780 426Z"/></g><g transform="translate(7979.111111111111 2048) scale (1 -1)"><path d="M1569 0L1284 0L1284 881L1268 819Q1214 608 1171 500L973 0L756 0L555 504Q512 614 463 813L444 881L444 0L160 0L160 1118L580 1118L772 641Q802 564 827.5 464Q853 364 862 293Q895 443 913.5 508.5Q932 574 954 629Q976 684 1153 1118L1569 1118Z"/></g><g transform="translate(10240.111111111111 2048) scale (1 -1)"><path d="M92 670Q92 1055 238.5 1254.5Q385 1454 696 1507Q805 1526 915.5 1538.5Q1026 1551 1147 1567L1182 1300Q928 1271 794.5 1253Q661 1235 598 1213.5Q535 1192 494.5 1152Q454 1112 432 1046.5Q410 981 403 872L418 872Q471 954 558 998Q645 1042 745 1042Q952 1042 1067 915.5Q1182 789 1182 553Q1182 281 1036.5 130.5Q891 -20 635 -20Q379 -20 235.5 163.5Q92 347 92 670ZM653 227Q870 227 870 526Q870 817 674 817Q620 817 566.5 792Q513 767 468.5 726.5Q424 686 403 645Q403 442 468 334.5Q533 227 653 227Z"/></g><g transform="translate(11514.111111111111 2048) scale (1 -1)"><path d="M403 561Q403 395 457.5 310Q512 225 635 225Q757 225 810.5 309.5Q864 394 864 561Q864 727 810 810Q756 893 633 893Q511 893 457 810.5Q403 728 403 561ZM1176 561Q1176 288 1032 134Q888 -20 631 -20Q470 -20 347 50.5Q224 121 158 253Q92 385 92 561Q92 835 235 987Q378 1139 637 1139Q798 1139 921 1069Q1044 999 1110 868Q1176 737 1176 561Z"/></g><g transform="translate(12782.111111111111 2048) scale (1 -1)"><path d="M1085 1118L1085 889L719 889L719 0L414 0L414 889L47 889L47 1118Z"/></g><g transform="translate(36.11111111111131 5120) scale (1 -1)"><path d="M82 561Q82 826 159.5 1057Q237 1288 383 1462L633 1462Q492 1269 420 1038Q348 807 348 563Q348 318 421.5 89.5Q495 -139 631 -324L383 -324Q236 -154 159 73Q82 300 82 561Z"/></g><g transform="translate(730.1111111111113 5120) scale (1 -1)"><path d="M977 1124Q1257 1101 1416 951Q1575 801 1575 559Q1575 312 1418 163.5Q1261 15 977 -8L977 -492L694 -492L694 -8Q411 18 251.5 169.5Q92 321 92 559Q92 812 246 958.5Q400 1105 694 1124L694 1556L977 1556ZM406 559Q406 418 483 329.5Q560 241 694 223L694 895Q565 878 485.5 786Q406 694 406 559ZM1262 559Q1262 691 1187 781.5Q1112 872 977 891L977 223Q1110 241 1186 330Q1262 419 1262 559Z"/></g><g transform="translate(2397.1111111111113 5120) scale (1 -1)"><path d="M0 1118L334 1118L545 489Q572 407 582 295L588 295Q599 398 631 489L838 1118L1165 1118L692 -143Q627 -318 506.5 -405Q386 -492 225 -492Q146 -492 70 -475L70 -233Q125 -246 190 -246Q271 -246 331.5 -196.5Q392 -147 426 -47L444 8Z"/></g><g transform="translate(3562.1111111111113 5120) scale (1 -1)"><path d="M465 1118L465 688L891 688L891 1118L1196 1118L1196 0L891 0L891 461L465 461L465 0L160 0L160 1118Z"/></g><g transform="translate(4918.111111111111 5120) scale (1 -1)"><path d="M893 1118L1229 1118L786 582L1268 0L922 0L465 567L465 0L160 0L160 1118L465 1118L465 575Z"/></g><g transform="translate(6186.111111111111 5120) scale (1 -1)"><path d="M1217 223L1380 223L1380 -401L1106 -401L1106 0L160 0L160 1118L465 1118L465 229L911 229L911 1118L1217 1118Z"/></g><g transform="translate(7595.111111111111 5120) scale (1 -1)"><path d="M455 1118L455 676Q455 606 432 334L948 1118L1315 1118L1315 0L1020 0L1020 446Q1020 565 1040 782L526 0L160 0L160 1118Z"/></g><g transform="translate(9070.111111111111 5120) scale (1 -1)"><path d="M403 561Q403 395 457.5 310Q512 225 635 225Q757 225 810.5 309.5Q864 394 864 561Q864 727 810 810Q756 893 633 893Q511 893 457 810.5Q403 728 403 561ZM1176 561Q1176 288 1032 134Q888 -20 631 -20Q470 -20 347 50.5Q224 121 158 253Q92 385 92 561Q92 835 235 987Q378 1139 637 1139Q798 1139 921 1069Q1044 999 1110 868Q1176 737 1176 561Z"/></g><g transform="translate(10338.111111111111 5120) scale (1 -1)"><path d="M465 1118L465 688L891 688L891 1118L1196 1118L1196 0L891 0L891 461L465 461L465 0L160 0L160 1118Z"/></g><g transform="translate(11694.111111111111 5120) scale (1 -1)"><path d="M870 0L811 152L803 152Q726 55 644.5 17.5Q563 -20 432 -20Q271 -20 178.5 72Q86 164 86 334Q86 512 210.5 596.5Q335 681 586 690L780 696L780 745Q780 915 606 915Q472 915 291 834L190 1040Q383 1141 618 1141Q843 1141 963 1043Q1083 945 1083 745L1083 0ZM780 518L662 514Q529 510 464 466Q399 422 399 332Q399 203 547 203Q653 203 716.5 264Q780 325 780 426Z"/></g><g transform="translate(12931.111111111111 5120) scale (1 -1)"><path d="M1161 0L856 0L856 889L575 889Q543 514 497 329.5Q451 145 374.5 62.5Q298 -20 174 -20Q68 -20 0 12L0 256Q49 236 98 236Q155 236 193.5 318Q232 400 262.5 591.5Q293 783 315 1118L1161 1118Z"/></g><g transform="translate(14252.111111111111 5120) scale (1 -1)"><path d="M465 686L680 686Q938 686 1062 604Q1186 522 1186 356Q1186 0 692 0L160 0L160 1118L465 1118ZM881 352Q881 417 829 446Q777 475 674 475L465 475L465 211L678 211Q881 211 881 352Z"/></g><g transform="translate(15509.111111111111 5120) scale (1 -1)"><path d="M465 1118L465 688L891 688L891 1118L1196 1118L1196 0L891 0L891 461L465 461L465 0L160 0L160 1118Z"/></g><g transform="translate(16865.11111111111 5120) scale (1 -1)"><path d="M870 0L811 152L803 152Q726 55 644.5 17.5Q563 -20 432 -20Q271 -20 178.5 72Q86 164 86 334Q86 512 210.5 596.5Q335 681 586 690L780 696L780 745Q780 915 606 915Q472 915 291 834L190 1040Q383 1141 618 1141Q843 1141 963 1043Q1083 945 1083 745L1083 0ZM780 518L662 514Q529 510 464 466Q399 422 399 332Q399 203 547 203Q653 203 716.5 264Q780 325 780 426Z"/></g><g transform="translate(18102.11111111111 5120) scale (1 -1)"><path d="M330 0L0 0L301 442Q193 487 137.5 572Q82 657 82 772Q82 934 203.5 1026Q325 1118 535 1118L1055 1118L1055 0L750 0L750 416L582 416ZM381 770Q381 700 436 660.5Q491 621 580 621L750 621L750 903L541 903Q466 903 423.5 866.5Q381 830 381 770Z"/></g><g transform="translate(6312.611111111111 8192) scale (1 -1)"><path d="M428 1118L428 709Q428 563 563 563Q651 563 726.5 583Q802 603 879 635L879 1118L1184 1118L1184 0L879 0L879 444Q773 388 682 365Q591 342 506 342Q323 342 223 435.5Q123 529 123 702L123 1118Z"/></g><g transform="translate(7655.611111111111 8192) scale (1 -1)"><path d="M870 0L811 152L803 152Q726 55 644.5 17.5Q563 -20 432 -20Q271 -20 178.5 72Q86 164 86 334Q86 512 210.5 596.5Q335 681 586 690L780 696L780 745Q780 915 606 915Q472 915 291 834L190 1040Q383 1141 618 1141Q843 1141 963 1043Q1083 945 1083 745L1083 0ZM780 518L662 514Q529 510 464 466Q399 422 399 332Q399 203 547 203Q653 203 716.5 264Q780 325 780 426Z"/></g><g transform="translate(8892.611111111111 8192) scale (1 -1)"><path d="M614 -20Q92 -20 92 553Q92 838 234 988.5Q376 1139 641 1139Q835 1139 989 1063L899 827Q827 856 765 874.5Q703 893 641 893Q403 893 403 555Q403 227 641 227Q729 227 804 250.5Q879 274 954 324L954 63Q880 16 804.5 -2Q729 -20 614 -20Z"/></g><g transform="translate(9945.611111111111 8192) scale (1 -1)"><path d="M1085 1118L1085 889L719 889L719 0L414 0L414 889L47 889L47 1118Z"/></g><g transform="translate(11078.611111111111 8192) scale (1 -1)"><path d="M465 686L680 686Q938 686 1062 604Q1186 522 1186 356Q1186 0 692 0L160 0L160 1118L465 1118ZM881 352Q881 417 829 446Q777 475 674 475L465 475L465 211L678 211Q881 211 881 352Z"/></g><g transform="translate(12335.611111111111 8192) scale (1 -1)"><path d="M612 561Q612 298 534.5 71Q457 -156 311 -324L63 -324Q198 -140 272 88.5Q346 317 346 563Q346 807 274 1038Q202 1269 61 1462L311 1462Q458 1287 535 1055.5Q612 824 612 561Z"/></g></g></g><g transform="translate(82,-70)"><rect x="0" y="0" width="158" height="93" border="1" rx="10" ry="10" style="fill:#E0E0E0;stroke:#707070;stroke-width:1px;"/><g transform="translate (6 6) scale(0.0087890625)" style="fill:#4F4F4F;"><g transform="translate(561.2777777777774 2048) scale (1 -1)"><path d="M803 0L451 1147L442 1147Q461 797 461 680L461 0L184 0L184 1462L606 1462L952 344L958 344L1325 1462L1747 1462L1747 0L1458 0L1458 692Q1458 741 1459.5 805Q1461 869 1473 1145L1464 1145L1087 0Z"/></g><g transform="translate(2492.2777777777774 2048) scale (1 -1)"><path d="M623 922Q526 922 471 860.5Q416 799 408 686L836 686Q834 799 777 860.5Q720 922 623 922ZM666 -20Q396 -20 244 129Q92 278 92 551Q92 832 232.5 985.5Q373 1139 621 1139Q858 1139 990 1004Q1122 869 1122 631L1122 483L401 483Q406 353 478 280Q550 207 680 207Q781 207 871 228Q961 249 1059 295L1059 59Q979 19 888 -0.5Q797 -20 666 -20Z"/></g><g transform="translate(3702.2777777777774 2048) scale (1 -1)"><path d="M465 1118L465 688L891 688L891 1118L1196 1118L1196 0L891 0L891 461L465 461L465 0L160 0L160 1118Z"/></g><g transform="translate(5058.277777777777 2048) scale (1 -1)"><path d="M1704 561Q1704 286 1565 133Q1426 -20 1180 -20Q959 -20 826.5 104Q694 228 666 461L465 461L465 0L160 0L160 1118L465 1118L465 688L670 688Q699 902 835.5 1020.5Q972 1139 1186 1139Q1423 1139 1563.5 983.5Q1704 828 1704 561ZM973 561Q973 394 1022 309.5Q1071 225 1184 225Q1295 225 1344 309.5Q1393 394 1393 561Q1393 728 1343.5 810.5Q1294 893 1182 893Q1071 893 1022 810Q973 727 973 561Z"/></g><g transform="translate(7386.277777777777 2048) scale (1 -1)"><path d="M82 561Q82 826 159.5 1057Q237 1288 383 1462L633 1462Q492 1269 420 1038Q348 807 348 563Q348 318 421.5 89.5Q495 -139 631 -324L383 -324Q236 -154 159 73Q82 300 82 561Z"/></g><g transform="translate(8080.277777777777 2048) scale (1 -1)"><path d="M893 1118L1229 1118L786 582L1268 0L922 0L465 567L465 0L160 0L160 1118L465 1118L465 575Z"/></g><g transform="translate(9348.277777777777 2048) scale (1 -1)"><path d="M465 1118L465 688L891 688L891 1118L1196 1118L1196 0L891 0L891 461L465 461L465 0L160 0L160 1118Z"/></g><g transform="translate(10704.277777777777 2048) scale (1 -1)"><path d="M403 561Q403 395 457.5 310Q512 225 635 225Q757 225 810.5 309.5Q864 394 864 561Q864 727 810 810Q756 893 633 893Q511 893 457 810.5Q403 728 403 561ZM1176 561Q1176 288 1032 134Q888 -20 631 -20Q470 -20 347 50.5Q224 121 158 253Q92 385 92 561Q92 835 235 987Q378 1139 637 1139Q798 1139 921 1069Q1044 999 1110 868Q1176 737 1176 561Z"/></g><g transform="translate(11972.277777777777 2048) scale (1 -1)"><path d="M1176 1118L1176 0L870 0L870 889L465 889L465 0L160 0L160 1118Z"/></g><g transform="translate(13307.277777777777 2048) scale (1 -1)"><path d="M893 1118L1229 1118L786 582L1268 0L922 0L465 567L465 0L160 0L160 1118L465 1118L465 575Z"/></g><g transform="translate(14575.277777777777 2048) scale (1 -1)"><path d="M455 1118L455 676Q455 606 432 334L948 1118L1315 1118L1315 0L1020 0L1020 446Q1020 565 1040 782L526 0L160 0L160 1118Z"/></g><g transform="translate(12.777777777777374 5120) scale (1 -1)"><path d="M1192 825Q1192 735 1135.5 671.5Q1079 608 969 590L969 582Q1088 568 1157.5 500.5Q1227 433 1227 334Q1227 171 1099 85.5Q971 0 733 0L160 0L160 1118L733 1118Q963 1118 1077.5 1043.5Q1192 969 1192 825ZM911 350Q911 416 860 445.5Q809 475 707 475L465 475L465 211L713 211Q810 211 860.5 247.5Q911 284 911 350ZM883 801Q883 903 721 903L465 903L465 682L686 682Q783 682 833 710Q883 738 883 801Z"/></g><g transform="translate(1321.7777777777774 5120) scale (1 -1)"><path d="M1176 1118L1176 0L870 0L870 889L465 889L465 0L160 0L160 1118Z"/></g><g transform="translate(2656.7777777777774 5120) scale (1 -1)"><path d="M623 922Q526 922 471 860.5Q416 799 408 686L836 686Q834 799 777 860.5Q720 922 623 922ZM666 -20Q396 -20 244 129Q92 278 92 551Q92 832 232.5 985.5Q373 1139 621 1139Q858 1139 990 1004Q1122 869 1122 631L1122 483L401 483Q406 353 478 280Q550 207 680 207Q781 207 871 228Q961 249 1059 295L1059 59Q979 19 888 -0.5Q797 -20 666 -20Z"/></g><g transform="translate(3866.7777777777774 5120) scale (1 -1)"><path d="M774 -20Q577 -20 465 123L449 123Q465 -17 465 -39L465 -492L160 -492L160 1118L408 1118L451 973L465 973Q572 1139 782 1139Q980 1139 1092 986Q1204 833 1204 561Q1204 382 1151.5 250Q1099 118 1002 49Q905 -20 774 -20ZM684 895Q571 895 519 825.5Q467 756 465 596L465 563Q465 383 518.5 305Q572 227 688 227Q893 227 893 565Q893 730 842.5 812.5Q792 895 684 895Z"/></g><g transform="translate(5162.777777777777 5120) scale (1 -1)"><path d="M623 922Q526 922 471 860.5Q416 799 408 686L836 686Q834 799 777 860.5Q720 922 623 922ZM666 -20Q396 -20 244 129Q92 278 92 551Q92 832 232.5 985.5Q373 1139 621 1139Q858 1139 990 1004Q1122 869 1122 631L1122 483L401 483Q406 353 478 280Q550 207 680 207Q781 207 871 228Q961 249 1059 295L1059 59Q979 19 888 -0.5Q797 -20 666 -20Z"/></g><g transform="translate(6372.777777777777 5120) scale (1 -1)"><path d="M860 223L860 889L631 889Q606 703 562.5 536Q519 369 442 223ZM1329 -401L1055 -401L1055 0L303 0L303 -401L29 -401L29 223L123 223Q219 372 284 599Q349 826 375 1118L1165 1118L1165 223L1329 223Z"/></g><g transform="translate(8264.777777777777 5120) scale (1 -1)"><path d="M455 1118L455 676Q455 606 432 334L948 1118L1315 1118L1315 0L1020 0L1020 446Q1020 565 1040 782L526 0L160 0L160 1118Z"/></g><g transform="translate(10271.777777777777 5120) scale (1 -1)"><path d="M465 1118L465 688L891 688L891 1118L1196 1118L1196 0L891 0L891 461L465 461L465 0L160 0L160 1118Z"/></g><g transform="translate(11627.777777777777 5120) scale (1 -1)"><path d="M870 0L811 152L803 152Q726 55 644.5 17.5Q563 -20 432 -20Q271 -20 178.5 72Q86 164 86 334Q86 512 210.5 596.5Q335 681 586 690L780 696L780 745Q780 915 606 915Q472 915 291 834L190 1040Q383 1141 618 1141Q843 1141 963 1043Q1083 945 1083 745L1083 0ZM780 518L662 514Q529 510 464 466Q399 422 399 332Q399 203 547 203Q653 203 716.5 264Q780 325 780 426Z"/></g><g transform="translate(12864.777777777777 5120) scale (1 -1)"><path d="M438 688Q611 688 683.5 716Q756 744 756 805Q756 859 703 886Q650 913 528 913Q451 913 353.5 894Q256 875 176 842L86 1055Q205 1100 317 1119.5Q429 1139 567 1139Q776 1139 902 1059Q1028 979 1028 842Q1028 653 805 596L805 586Q942 552 1000.5 489.5Q1059 427 1059 326Q1059 224 993 145Q927 66 802 23Q677 -20 508 -20Q228 -20 78 49L78 301Q164 261 266.5 238Q369 215 465 215Q614 215 688 248.5Q762 282 762 344Q762 412 684 444.5Q606 477 444 477L326 477L326 688Z"/></g><g transform="translate(14001.777777777777 5120) scale (1 -1)"><path d="M870 0L811 152L803 152Q726 55 644.5 17.5Q563 -20 432 -20Q271 -20 178.5 72Q86 164 86 334Q86 512 210.5 596.5Q335 681 586 690L780 696L780 745Q780 915 606 915Q472 915 291 834L190 1040Q383 1141 618 1141Q843 1141 963 1043Q1083 945 1083 745L1083 0ZM780 518L662 514Q529 510 464 466Q399 422 399 332Q399 203 547 203Q653 203 716.5 264Q780 325 780 426Z"/></g><g transform="translate(15238.777777777777 5120) scale (1 -1)"><path d="M860 223L860 889L631 889Q606 703 562.5 536Q519 369 442 223ZM1329 -401L1055 -401L1055 0L303 0L303 -401L29 -401L29 223L123 223Q219 372 284 599Q349 826 375 1118L1165 1118L1165 223L1329 223Z"/></g><g transform="translate(2503.2777777777774 8192) scale (1 -1)"><path d="M428 1118L428 709Q428 563 563 563Q651 563 726.5 583Q802 603 879 635L879 1118L1184 1118L1184 0L879 0L879 444Q773 388 682 365Q591 342 506 342Q323 342 223 435.5Q123 529 123 702L123 1118Z"/></g><g transform="translate(3846.2777777777774 8192) scale (1 -1)"><path d="M623 922Q526 922 471 860.5Q416 799 408 686L836 686Q834 799 777 860.5Q720 922 623 922ZM666 -20Q396 -20 244 129Q92 278 92 551Q92 832 232.5 985.5Q373 1139 621 1139Q858 1139 990 1004Q1122 869 1122 631L1122 483L401 483Q406 353 478 280Q550 207 680 207Q781 207 871 228Q961 249 1059 295L1059 59Q979 19 888 -0.5Q797 -20 666 -20Z"/></g><g transform="translate(5056.277777777777 8192) scale (1 -1)"><path d="M774 -20Q577 -20 465 123L449 123Q465 -17 465 -39L465 -492L160 -492L160 1118L408 1118L451 973L465 973Q572 1139 782 1139Q980 1139 1092 986Q1204 833 1204 561Q1204 382 1151.5 250Q1099 118 1002 49Q905 -20 774 -20ZM684 895Q571 895 519 825.5Q467 756 465 596L465 563Q465 383 518.5 305Q572 227 688 227Q893 227 893 565Q893 730 842.5 812.5Q792 895 684 895Z"/></g><g transform="translate(6352.277777777777 8192) scale (1 -1)"><path d="M623 922Q526 922 471 860.5Q416 799 408 686L836 686Q834 799 777 860.5Q720 922 623 922ZM666 -20Q396 -20 244 129Q92 278 92 551Q92 832 232.5 985.5Q373 1139 621 1139Q858 1139 990 1004Q1122 869 1122 631L1122 483L401 483Q406 353 478 280Q550 207 680 207Q781 207 871 228Q961 249 1059 295L1059 59Q979 19 888 -0.5Q797 -20 666 -20Z"/></g><g transform="translate(7562.277777777777 8192) scale (1 -1)"><path d="M438 688Q611 688 683.5 716Q756 744 756 805Q756 859 703 886Q650 913 528 913Q451 913 353.5 894Q256 875 176 842L86 1055Q205 1100 317 1119.5Q429 1139 567 1139Q776 1139 902 1059Q1028 979 1028 842Q1028 653 805 596L805 586Q942 552 1000.5 489.5Q1059 427 1059 326Q1059 224 993 145Q927 66 802 23Q677 -20 508 -20Q228 -20 78 49L78 301Q164 261 266.5 238Q369 215 465 215Q614 215 688 248.5Q762 282 762 344Q762 412 684 444.5Q606 477 444 477L326 477L326 688Z"/></g><g transform="translate(9231.277777777777 8192) scale (1 -1)"><path d="M489 0L184 0L184 1462L1022 1462L1022 1208L489 1208L489 831L985 831L985 578L489 578Z"/></g><g transform="translate(10355.277777777777 8192) scale (1 -1)"><path d="M1047 406Q1047 208 904.5 94Q762 -20 508 -20Q274 -20 94 68L94 356Q242 290 344.5 263Q447 236 532 236Q634 236 688.5 275Q743 314 743 391Q743 434 719 467.5Q695 501 648.5 532Q602 563 459 631Q325 694 258 752Q191 810 151 887Q111 964 111 1067Q111 1261 242.5 1372Q374 1483 606 1483Q720 1483 823.5 1456Q927 1429 1040 1380L940 1139Q823 1187 746.5 1206Q670 1225 596 1225Q508 1225 461 1184Q414 1143 414 1077Q414 1036 433 1005.5Q452 975 493.5 946.5Q535 918 690 844Q895 746 971 647.5Q1047 549 1047 406Z"/></g><g transform="translate(11483.277777777777 8192) scale (1 -1)"><path d="M803 0L451 1147L442 1147Q461 797 461 680L461 0L184 0L184 1462L606 1462L952 344L958 344L1325 1462L1747 1462L1747 0L1458 0L1458 692Q1458 741 1459.5 805Q1461 869 1473 1145L1464 1145L1087 0Z"/></g><g transform="translate(13414.277777777777 8192) scale (1 -1)"><path d="M612 561Q612 298 534.5 71Q457 -156 311 -324L63 -324Q198 -140 272 88.5Q346 317 346 563Q346 807 274 1038Q202 1269 61 1462L311 1462Q458 1287 535 1055.5Q612 824 612 561Z"/></g></g></g><g transform="translate(-493,-73)"><rect x="0" y="0" width="91" height="44" border="1" rx="10" ry="10" style="fill:#E0E0E0;stroke:#707070;stroke-width:1px;"/><g transform="translate (6 6) scale(0.01025390625)" style="fill:#4F4F4F;"><g transform="translate(39.19047619047615 2048) scale (1 -1)"><path d="M805 1225Q630 1225 534 1093.5Q438 962 438 727Q438 238 805 238Q959 238 1178 315L1178 55Q998 -20 776 -20Q457 -20 288 173.5Q119 367 119 729Q119 957 202 1128.5Q285 1300 440.5 1391.5Q596 1483 805 1483Q1018 1483 1233 1380L1133 1128Q1051 1167 968 1196Q885 1225 805 1225Z"/></g><g transform="translate(1344.1904761904761 2048) scale (1 -1)"><path d="M623 922Q526 922 471 860.5Q416 799 408 686L836 686Q834 799 777 860.5Q720 922 623 922ZM666 -20Q396 -20 244 129Q92 278 92 551Q92 832 232.5 985.5Q373 1139 621 1139Q858 1139 990 1004Q1122 869 1122 631L1122 483L401 483Q406 353 478 280Q550 207 680 207Q781 207 871 228Q961 249 1059 295L1059 59Q979 19 888 -0.5Q797 -20 666 -20Z"/></g><g transform="translate(2554.190476190476 2048) scale (1 -1)"><path d="M774 -20Q577 -20 465 123L449 123Q465 -17 465 -39L465 -492L160 -492L160 1118L408 1118L451 973L465 973Q572 1139 782 1139Q980 1139 1092 986Q1204 833 1204 561Q1204 382 1151.5 250Q1099 118 1002 49Q905 -20 774 -20ZM684 895Q571 895 519 825.5Q467 756 465 596L465 563Q465 383 518.5 305Q572 227 688 227Q893 227 893 565Q893 730 842.5 812.5Q792 895 684 895Z"/></g><g transform="translate(3850.190476190476 2048) scale (1 -1)"><path d="M1192 825Q1192 735 1135.5 671.5Q1079 608 969 590L969 582Q1088 568 1157.5 500.5Q1227 433 1227 334Q1227 171 1099 85.5Q971 0 733 0L160 0L160 1118L733 1118Q963 1118 1077.5 1043.5Q1192 969 1192 825ZM911 350Q911 416 860 445.5Q809 475 707 475L465 475L465 211L713 211Q810 211 860.5 247.5Q911 284 911 350ZM883 801Q883 903 721 903L465 903L465 682L686 682Q783 682 833 710Q883 738 883 801Z"/></g><g transform="translate(5159.190476190476 2048) scale (1 -1)"><path d="M623 922Q526 922 471 860.5Q416 799 408 686L836 686Q834 799 777 860.5Q720 922 623 922ZM666 -20Q396 -20 244 129Q92 278 92 551Q92 832 232.5 985.5Q373 1139 621 1139Q858 1139 990 1004Q1122 869 1122 631L1122 483L401 483Q406 353 478 280Q550 207 680 207Q781 207 871 228Q961 249 1059 295L1059 59Q979 19 888 -0.5Q797 -20 666 -20Z"/></g><g transform="translate(6369.190476190476 2048) scale (1 -1)"><path d="M774 -20Q577 -20 465 123L449 123Q465 -17 465 -39L465 -492L160 -492L160 1118L408 1118L451 973L465 973Q572 1139 782 1139Q980 1139 1092 986Q1204 833 1204 561Q1204 382 1151.5 250Q1099 118 1002 49Q905 -20 774 -20ZM684 895Q571 895 519 825.5Q467 756 465 596L465 563Q465 383 518.5 305Q572 227 688 227Q893 227 893 565Q893 730 842.5 812.5Q792 895 684 895Z"/></g></g></g><g transform="translate(-632,-113)"><rect x="0" y="0" width="119" height="39" border="1" rx="10" ry="10" style="fill:#E0E0E0;stroke:#707070;stroke-width:1px;"/><g transform="translate (6 6) scale(0.0087890625)" style="fill:#4F4F4F;"><g transform="translate(28.111111111111313 2048) scale (1 -1)"><path d="M1047 406Q1047 208 904.5 94Q762 -20 508 -20Q274 -20 94 68L94 356Q242 290 344.5 263Q447 236 532 236Q634 236 688.5 275Q743 314 743 391Q743 434 719 467.5Q695 501 648.5 532Q602 563 459 631Q325 694 258 752Q191 810 151 887Q111 964 111 1067Q111 1261 242.5 1372Q374 1483 606 1483Q720 1483 823.5 1456Q927 1429 1040 1380L940 1139Q823 1187 746.5 1206Q670 1225 596 1225Q508 1225 461 1184Q414 1143 414 1077Q414 1036 433 1005.5Q452 975 493.5 946.5Q535 918 690 844Q895 746 971 647.5Q1047 549 1047 406Z"/></g><g transform="translate(1156.1111111111113 2048) scale (1 -1)"><path d="M1047 406Q1047 208 904.5 94Q762 -20 508 -20Q274 -20 94 68L94 356Q242 290 344.5 263Q447 236 532 236Q634 236 688.5 275Q743 314 743 391Q743 434 719 467.5Q695 501 648.5 532Q602 563 459 631Q325 694 258 752Q191 810 151 887Q111 964 111 1067Q111 1261 242.5 1372Q374 1483 606 1483Q720 1483 823.5 1456Q927 1429 1040 1380L940 1139Q823 1187 746.5 1206Q670 1225 596 1225Q508 1225 461 1184Q414 1143 414 1077Q414 1036 433 1005.5Q452 975 493.5 946.5Q535 918 690 844Q895 746 971 647.5Q1047 549 1047 406Z"/></g><g transform="translate(2284.1111111111113 2048) scale (1 -1)"><path d="M1382 0L1073 0L1073 631L494 631L494 0L184 0L184 1462L494 1462L494 889L1073 889L1073 1462L1382 1462Z"/></g><g transform="translate(4383.111111111111 2048) scale (1 -1)"><path d="M893 1118L1229 1118L786 582L1268 0L922 0L465 567L465 0L160 0L160 1118L465 1118L465 575Z"/></g><g transform="translate(5651.111111111111 2048) scale (1 -1)"><path d="M1161 0L856 0L856 889L575 889Q543 514 497 329.5Q451 145 374.5 62.5Q298 -20 174 -20Q68 -20 0 12L0 256Q49 236 98 236Q155 236 193.5 318Q232 400 262.5 591.5Q293 783 315 1118L1161 1118Z"/></g><g transform="translate(6972.111111111111 2048) scale (1 -1)"><path d="M455 1118L455 676Q455 606 432 334L948 1118L1315 1118L1315 0L1020 0L1020 446Q1020 565 1040 782L526 0L160 0L160 1118Z"/></g><g transform="translate(8447.111111111111 2048) scale (1 -1)"><path d="M623 922Q526 922 471 860.5Q416 799 408 686L836 686Q834 799 777 860.5Q720 922 623 922ZM666 -20Q396 -20 244 129Q92 278 92 551Q92 832 232.5 985.5Q373 1139 621 1139Q858 1139 990 1004Q1122 869 1122 631L1122 483L401 483Q406 353 478 280Q550 207 680 207Q781 207 871 228Q961 249 1059 295L1059 59Q979 19 888 -0.5Q797 -20 666 -20Z"/></g><g transform="translate(9657.111111111111 2048) scale (1 -1)"><path d="M465 1118L465 688L891 688L891 1118L1196 1118L1196 0L891 0L891 461L465 461L465 0L160 0L160 1118Z"/></g><g transform="translate(11013.111111111111 2048) scale (1 -1)"><path d="M1085 1118L1085 889L719 889L719 0L414 0L414 889L47 889L47 1118Z"/></g></g></g><g transform="translate(82,43)"><rect x="0" y="0" width="116" height="44" border="1" rx="10" ry="10" style="fill:#E0E0E0;stroke:#707070;stroke-width:1px;"/><g transform="translate (6 6) scale(0.01025390625)" style="fill:#4F4F4F;"><g transform="translate(37.73809523809541 2048) scale (1 -1)"><path d="M1376 0L1024 0L494 741L494 0L184 0L184 1462L494 1462L494 754L1018 1462L1348 1462L815 760Z"/></g><g transform="translate(1413.7380952380954 2048) scale (1 -1)"><path d="M403 561Q403 395 457.5 310Q512 225 635 225Q757 225 810.5 309.5Q864 394 864 561Q864 727 810 810Q756 893 633 893Q511 893 457 810.5Q403 728 403 561ZM1176 561Q1176 288 1032 134Q888 -20 631 -20Q470 -20 347 50.5Q224 121 158 253Q92 385 92 561Q92 835 235 987Q378 1139 637 1139Q798 1139 921 1069Q1044 999 1110 868Q1176 737 1176 561Z"/></g><g transform="translate(2681.7380952380954 2048) scale (1 -1)"><path d="M1569 0L1284 0L1284 881L1268 819Q1214 608 1171 500L973 0L756 0L555 504Q512 614 463 813L444 881L444 0L160 0L160 1118L580 1118L772 641Q802 564 827.5 464Q853 364 862 293Q895 443 913.5 508.5Q932 574 954 629Q976 684 1153 1118L1569 1118Z"/></g><g transform="translate(4410.738095238095 2048) scale (1 -1)"><path d="M870 0L811 152L803 152Q726 55 644.5 17.5Q563 -20 432 -20Q271 -20 178.5 72Q86 164 86 334Q86 512 210.5 596.5Q335 681 586 690L780 696L780 745Q780 915 606 915Q472 915 291 834L190 1040Q383 1141 618 1141Q843 1141 963 1043Q1083 945 1083 745L1083 0ZM780 518L662 514Q529 510 464 466Q399 422 399 332Q399 203 547 203Q653 203 716.5 264Q780 325 780 426Z"/></g><g transform="translate(5647.738095238095 2048) scale (1 -1)"><path d="M465 1118L465 688L891 688L891 1118L1196 1118L1196 0L891 0L891 461L465 461L465 0L160 0L160 1118Z"/></g><g transform="translate(7003.738095238095 2048) scale (1 -1)"><path d="M860 223L860 889L631 889Q606 703 562.5 536Q519 369 442 223ZM1329 -401L1055 -401L1055 0L303 0L303 -401L29 -401L29 223L123 223Q219 372 284 599Q349 826 375 1118L1165 1118L1165 223L1329 223Z"/></g><g transform="translate(8363.738095238095 2048) scale (1 -1)"><path d="M465 686L612 686Q868 686 991 604Q1114 522 1114 356Q1114 179 991 89.5Q868 0 623 0L160 0L160 1118L465 1118ZM809 352Q809 417 757 446Q705 475 602 475L465 475L465 211L606 211Q809 211 809 352ZM1581 0L1276 0L1276 1118L1581 1118Z"/></g></g></g><g transform="translate(-671,-54)"><rect x="0" y="0" width="158" height="66" border="1" rx="10" ry="10" style="fill:#E0E0E0;stroke:#707070;stroke-width:1px;"/><g transform="translate (6 6) scale(0.0087890625)" style="fill:#4F4F4F;"><g transform="translate(1715.7777777777774 2048) scale (1 -1)"><path d="M1020 444L1034 444Q1195 444 1286.5 528.5Q1378 613 1378 760Q1378 896 1293 978.5Q1208 1061 1061 1061L1020 1061ZM741 -20L741 205L719 205Q533 205 393 270.5Q253 336 172.5 467Q92 598 92 758Q92 913 163.5 1037.5Q235 1162 370 1232.5Q505 1303 688 1303L741 1303L741 1483L1020 1483L1020 1303L1073 1303Q1255 1303 1390 1232.5Q1525 1162 1597 1037.5Q1669 913 1669 758Q1669 598 1588.5 467Q1508 336 1368 270.5Q1228 205 1042 205L1020 205L1020 -20ZM741 1061L700 1061Q553 1061 468 979Q383 897 383 760Q383 616 473 530Q563 444 727 444L741 444Z"/></g><g transform="translate(3476.7777777777774 2048) scale (1 -1)"><path d="M455 1118L455 676Q455 606 432 334L948 1118L1315 1118L1315 0L1020 0L1020 446Q1020 565 1040 782L526 0L160 0L160 1118Z"/></g><g transform="translate(4951.777777777777 2048) scale (1 -1)"><path d="M438 688Q611 688 683.5 716Q756 744 756 805Q756 859 703 886Q650 913 528 913Q451 913 353.5 894Q256 875 176 842L86 1055Q205 1100 317 1119.5Q429 1139 567 1139Q776 1139 902 1059Q1028 979 1028 842Q1028 653 805 596L805 586Q942 552 1000.5 489.5Q1059 427 1059 326Q1059 224 993 145Q927 66 802 23Q677 -20 508 -20Q228 -20 78 49L78 301Q164 261 266.5 238Q369 215 465 215Q614 215 688 248.5Q762 282 762 344Q762 412 684 444.5Q606 477 444 477L326 477L326 688Z"/></g><g transform="translate(6088.777777777777 2048) scale (1 -1)"><path d="M455 1118L455 676Q455 606 432 334L948 1118L1315 1118L1315 0L1020 0L1020 446Q1020 565 1040 782L526 0L160 0L160 1118Z"/></g><g transform="translate(7563.777777777777 2048) scale (1 -1)"><path d="M428 1118L428 709Q428 563 563 563Q651 563 726.5 583Q802 603 879 635L879 1118L1184 1118L1184 0L879 0L879 444Q773 388 682 365Q591 342 506 342Q323 342 223 435.5Q123 529 123 702L123 1118Z"/></g><g transform="translate(8906.777777777777 2048) scale (1 -1)"><path d="M623 922Q526 922 471 860.5Q416 799 408 686L836 686Q834 799 777 860.5Q720 922 623 922ZM666 -20Q396 -20 244 129Q92 278 92 551Q92 832 232.5 985.5Q373 1139 621 1139Q858 1139 990 1004Q1122 869 1122 631L1122 483L401 483Q406 353 478 280Q550 207 680 207Q781 207 871 228Q961 249 1059 295L1059 59Q979 19 888 -0.5Q797 -20 666 -20Z"/></g><g transform="translate(10116.777777777777 2048) scale (1 -1)"><path d="M614 -20Q92 -20 92 553Q92 838 234 988.5Q376 1139 641 1139Q835 1139 989 1063L899 827Q827 856 765 874.5Q703 893 641 893Q403 893 403 555Q403 227 641 227Q729 227 804 250.5Q879 274 954 324L954 63Q880 16 804.5 -2Q729 -20 614 -20Z"/></g><g transform="translate(11169.777777777777 2048) scale (1 -1)"><path d="M893 1118L1229 1118L786 582L1268 0L922 0L465 567L465 0L160 0L160 1118L465 1118L465 575Z"/></g><g transform="translate(12437.777777777777 2048) scale (1 -1)"><path d="M403 561Q403 395 457.5 310Q512 225 635 225Q757 225 810.5 309.5Q864 394 864 561Q864 727 810 810Q756 893 633 893Q511 893 457 810.5Q403 728 403 561ZM1176 561Q1176 288 1032 134Q888 -20 631 -20Q470 -20 347 50.5Q224 121 158 253Q92 385 92 561Q92 835 235 987Q378 1139 637 1139Q798 1139 921 1069Q1044 999 1110 868Q1176 737 1176 561Z"/></g><g transform="translate(13705.777777777777 2048) scale (1 -1)"><path d="M623 922Q526 922 471 860.5Q416 799 408 686L836 686Q834 799 777 860.5Q720 922 623 922ZM666 -20Q396 -20 244 129Q92 278 92 551Q92 832 232.5 985.5Q373 1139 621 1139Q858 1139 990 1004Q1122 869 1122 631L1122 483L401 483Q406 353 478 280Q550 207 680 207Q781 207 871 228Q961 249 1059 295L1059 59Q979 19 888 -0.5Q797 -20 666 -20Z"/></g><g transform="translate(839.7777777777774 5120) scale (1 -1)"><path d="M1176 1118L1176 0L870 0L870 889L465 889L465 0L160 0L160 1118Z"/></g><g transform="translate(2174.7777777777774 5120) scale (1 -1)"><path d="M403 561Q403 395 457.5 310Q512 225 635 225Q757 225 810.5 309.5Q864 394 864 561Q864 727 810 810Q756 893 633 893Q511 893 457 810.5Q403 728 403 561ZM1176 561Q1176 288 1032 134Q888 -20 631 -20Q470 -20 347 50.5Q224 121 158 253Q92 385 92 561Q92 835 235 987Q378 1139 637 1139Q798 1139 921 1069Q1044 999 1110 868Q1176 737 1176 561Z"/></g><g transform="translate(3442.7777777777774 5120) scale (1 -1)"><path d="M860 223L860 889L631 889Q606 703 562.5 536Q519 369 442 223ZM1329 -401L1055 -401L1055 0L303 0L303 -401L29 -401L29 223L123 223Q219 372 284 599Q349 826 375 1118L1165 1118L1165 223L1329 223Z"/></g><g transform="translate(4802.777777777777 5120) scale (1 -1)"><path d="M893 1118L1229 1118L786 582L1268 0L922 0L465 567L465 0L160 0L160 1118L465 1118L465 575Z"/></g><g transform="translate(6070.777777777777 5120) scale (1 -1)"><path d="M1161 0L856 0L856 889L575 889Q543 514 497 329.5Q451 145 374.5 62.5Q298 -20 174 -20Q68 -20 0 12L0 256Q49 236 98 236Q155 236 193.5 318Q232 400 262.5 591.5Q293 783 315 1118L1161 1118Z"/></g><g transform="translate(7391.777777777777 5120) scale (1 -1)"><path d="M1704 561Q1704 286 1565 133Q1426 -20 1180 -20Q959 -20 826.5 104Q694 228 666 461L465 461L465 0L160 0L160 1118L465 1118L465 688L670 688Q699 902 835.5 1020.5Q972 1139 1186 1139Q1423 1139 1563.5 983.5Q1704 828 1704 561ZM973 561Q973 394 1022 309.5Q1071 225 1184 225Q1295 225 1344 309.5Q1393 394 1393 561Q1393 728 1343.5 810.5Q1294 893 1182 893Q1071 893 1022 810Q973 727 973 561Z"/></g><g transform="translate(9187.777777777777 5120) scale (1 -1)"><path d="M428 1118L428 709Q428 563 563 563Q651 563 726.5 583Q802 603 879 635L879 1118L1184 1118L1184 0L879 0L879 444Q773 388 682 365Q591 342 506 342Q323 342 223 435.5Q123 529 123 702L123 1118Z"/></g><g transform="translate(10530.777777777777 5120) scale (1 -1)"><path d="M623 922Q526 922 471 860.5Q416 799 408 686L836 686Q834 799 777 860.5Q720 922 623 922ZM666 -20Q396 -20 244 129Q92 278 92 551Q92 832 232.5 985.5Q373 1139 621 1139Q858 1139 990 1004Q1122 869 1122 631L1122 483L401 483Q406 353 478 280Q550 207 680 207Q781 207 871 228Q961 249 1059 295L1059 59Q979 19 888 -0.5Q797 -20 666 -20Z"/></g><g transform="translate(11740.777777777777 5120) scale (1 -1)"><path d="M465 1118L465 688L891 688L891 1118L1196 1118L1196 0L891 0L891 461L465 461L465 0L160 0L160 1118Z"/></g><g transform="translate(13096.777777777777 5120) scale (1 -1)"><path d="M455 1118L455 676Q455 606 432 334L948 1118L1315 1118L1315 0L1020 0L1020 446Q1020 565 1040 782L526 0L160 0L160 1118Z"/></g><g transform="translate(14571.777777777777 5120) scale (1 -1)"><path d="M623 922Q526 922 471 860.5Q416 799 408 686L836 686Q834 799 777 860.5Q720 922 623 922ZM666 -20Q396 -20 244 129Q92 278 92 551Q92 832 232.5 985.5Q373 1139 621 1139Q858 1139 990 1004Q1122 869 1122 631L1122 483L401 483Q406 353 478 280Q550 207 680 207Q781 207 871 228Q961 249 1059 295L1059 59Q979 19 888 -0.5Q797 -20 666 -20Z"/></g></g></g></g></svg>